IKResults
version=1
nRows=7
nColumns=40
inDegrees=yes

Units are S.I. units (second, meters, Newtons, ...)
Angles are in degrees.

endheader
time	pelvis_tilt	pelvis_list	pelvis_rotation	pelvis_tx	pelvis_ty	pelvis_tz	hip_flexion_r	hip_adduction_r	hip_rotation_r	knee_angle_r	knee_angle_r_beta	ankle_angle_r	subtalar_angle_r	mtp_angle_r	hip_flexion_l	hip_adduction_l	hip_rotation_l	knee_angle_l	knee_angle_l_beta	ankle_angle_l	subtalar_angle_l	mtp_angle_l	lumbar_extension	lumbar_bending	lumbar_rotation	arm_flex_r	arm_add_r	arm_rot_r	elbow_flex_r	pro_sup_r	wrist_flex_r	wrist_dev_r	arm_flex_l	arm_add_l	arm_rot_l	elbow_flex_l	pro_sup_l	wrist_flex_l	wrist_dev_l
      0.40000000	     17.24595434	      2.04779830	     -6.31611683	     -0.47036004	      0.94530604	     -1.00851045	    -14.52125213	     -5.30196536	      0.36202456	    -57.36563137	     -1.00121914	    -22.92197502	    -15.67508273	     18.62679223	     -6.96681909	     -3.63283756	     23.34225600	    -13.94235071	     -0.24333993	      1.20958246	     -5.14767820	     -7.43242081	    -24.18064158	     -6.05445491	      3.77763041	     -2.66888680	    -13.20731690	      1.84501370	     34.77146191	     89.95437384	      0.00000000	      0.00000000	     -7.77900410	      9.15655515	      5.15807911	     18.33966481	     89.95437384	      0.00000000	      0.00000000
      0.41000000	     17.39186267	      1.90685692	     -6.25078015	     -0.46010223	      0.94654161	     -1.00951007	    -13.24663003	     -5.04020164	      0.75428468	    -59.06594032	     -1.03089513	    -21.30153985	    -16.22150223	     18.42143197	     -8.23250665	     -3.73159287	     23.33530373	    -13.21686669	     -0.23067784	      1.54218284	     -5.60925841	     -7.42770778	    -24.43201463	     -5.84337382	      3.48738346	     -2.80127908	    -13.04728854	      2.26547330	     33.22903329	     89.95437384	      0.00000000	      0.00000000	     -6.95912022	      9.31355513	      5.15818594	     19.01747700	     89.95437384	      0.00000000	      0.00000000
      0.42000000	     17.48801124	      1.94066943	     -6.22332057	     -0.45005629	      0.94758419	     -1.01060653	    -11.84564236	     -5.06546742	      1.01531843	    -60.71052656	     -1.05959858	    -18.62509061	    -16.36424823	     18.26860062	     -9.40839499	     -4.00711650	     23.48502054	    -12.45121714	     -0.21731474	      1.52158991	     -6.12649447	     -7.36583246	    -24.63703274	     -5.82957655	      3.09651794	     -2.89208359	    -12.94790878	      2.97873048	     31.71584085	     89.95437384	      0.00000000	      0.00000000	     -6.19113488	      9.52632247	      5.14258325	     19.83632485	     89.95437384	      0.00000000	      0.00000000
      0.43000000	     17.65474601	      1.71723514	     -5.88765784	     -0.44019916	      0.94878877	     -1.01171717	    -10.71953842	     -4.64702206	      1.06431908	    -61.83931736	     -1.07929970	    -16.13694696	    -16.99884490	     17.95305645	    -10.58124104	     -3.88934542	     23.43906409	    -11.90965346	     -0.20786267	      1.74589117	     -6.68072327	     -7.38343231	    -24.97898944	     -5.47103386	      2.65819659	     -3.05168847	    -12.76927708	      3.27799264	     30.26718053	     89.95437384	      0.00000000	      0.00000000	     -5.14753293	      9.72780084	      5.11867543	     20.35086024	     89.95437384	      0.00000000	      0.00000000
      0.44000000	     17.84147701	      1.66369769	     -5.56969626	     -0.43020389	      0.94983058	     -1.01306524	     -9.63670650	     -4.49651026	      1.10488109	    -62.73243281	     -1.09488750	    -13.44433344	    -16.41202909	     17.75871861	    -11.76513036	     -3.99952080	     23.17699133	    -11.30663233	     -0.19733796	      1.69708753	     -7.26157170	     -7.30693546	    -25.29581079	     -5.27348354	      1.97896015	     -3.15541198	    -12.64569026	      3.95792794	     28.89046170	     89.95437384	      0.00000000	      0.00000000	     -4.31392245	      9.94028042	      5.29862030	     21.11290111	     89.95437384	      0.00000000	      0.00000000
      0.45000000	     17.94324786	      1.50477623	     -5.18252995	     -0.42056198	      0.95073548	     -1.01427670	     -8.45631454	     -4.18947643	      1.02177532	    -63.28779687	     -1.10458043	    -11.92958548	    -16.57590114	     17.39507953	    -12.68544220	     -3.88411964	     23.03501859	    -11.06236684	     -0.19307472	      2.05026268	     -7.48930377	     -7.24969649	    -25.56411387	     -4.93675966	      1.49294091	     -3.43776409	    -12.49391952	      4.13656551	     27.78135979	     89.95437384	      0.00000000	      0.00000000	     -3.18842101	     10.14950684	      5.21358415	     21.50357750	     89.95437384	      0.00000000	      0.00000000
      0.46000000	     17.98729390	      1.29920216	     -4.67386112	     -0.41083740	      0.95152849	     -1.01550460	     -7.38316803	     -3.65903500	      1.05566167	    -63.50643234	     -1.10839634	     -9.86667150	    -16.53083520	     17.01998546	    -13.61392425	     -3.72135674	     22.58441569	    -10.65062693	     -0.18588851	      2.31754155	     -7.94651296	     -7.21106800	    -25.74403248	     -4.52248309	      0.85505092	     -3.59390680	    -12.29779788	      4.34368188	     26.45829251	     89.95437384	      0.00000000	      0.00000000	     -2.07597553	     10.39463564	      5.15926691	     21.87230133	     89.95437384	      0.00000000	      0.00000000
